<svg width="20" height="20" viewBox="0 0 20 20" fill="none" xmlns="http://www.w3.org/2000/svg">
<path d="M14.7204 14.078C16.0034 12.6422 16.712 10.7835 16.7106 8.85778C16.7106 4.52293 13.1842 1 8.8553 1C4.52182 1 1 4.52751 1 8.85778C1 13.188 4.5264 16.7156 8.8553 16.7156C10.7804 16.7169 12.6385 16.0081 14.0738 14.7247L18.2147 18.8669C18.2573 18.9098 18.308 18.9437 18.364 18.9666C18.4199 18.9894 18.4799 19.0008 18.5403 19C18.6619 18.9995 18.7787 18.9518 18.8659 18.8669C18.9084 18.8245 18.9421 18.7741 18.9651 18.7186C18.9882 18.6631 19 18.6036 19 18.5435C19 18.4835 18.9882 18.424 18.9651 18.3685C18.9421 18.313 18.9084 18.2626 18.8659 18.2201L14.7204 14.078ZM1.91255 8.85778C1.91255 5.0321 5.02624 1.91743 8.85071 1.91743C12.6752 1.91743 15.7889 5.0321 15.7889 8.85778C15.7889 12.6835 12.6752 15.7981 8.85071 15.7981C5.02624 15.7981 1.91255 12.6835 1.91255 8.85778Z" fill="white" stroke="white"/>
</svg>
