<svg width="416" height="133" viewBox="0 0 416 133" fill="none" xmlns="http://www.w3.org/2000/svg">
<rect width="416" height="133" fill="black"/>
<path d="M51 64L63.002 51.998H71V84H63.002V64L51 76.002L43.002 68.0039V56.002L51 64ZM38.998 51.998V84H31V51.998H38.998ZM75.0234 59.9961V51.998H115.023V59.9961H99.0273V71.998H91.0195V59.9961H75.0234ZM115.023 76.002V84H75.0234V76.002H115.023ZM151.049 71.998V51.998H159.047V84H151.049L131.049 64V51.998L151.049 71.998ZM127.045 51.998V84H119.047V51.998H127.045ZM163.07 51.998H203.07V59.9961H171.068V76.002H203.07V84H163.07V51.998ZM199.066 64V71.998H175.072V64H199.066ZM207.094 84V76.002H239.096V71.998H207.094V51.998H215.092V64H247.094V84H207.094ZM219.096 59.9961V51.998H247.094V59.9961H219.096ZM263.119 71.998V64H283.119V51.998H291.117V84H283.119V71.998H263.119ZM251.117 84V51.998H259.115V84H251.117ZM327.143 76.002V51.998H335.141V84H295.141V76.002H327.143ZM295.141 51.998H323.139V59.9961H303.139V71.998H295.141V51.998ZM339.164 59.9961V51.998H379.164V71.998H351.166V64H371.166V59.9961H339.164ZM339.164 84V64H347.162V84H339.164Z" fill="white"/>
</svg>
